<svg xmlns="http://www.w3.org/2000/svg" width="1600" height="900" viewBox="0 0 1600 900"><rect width="100%" height="100%" fill="#DDDDDD"/><path fill="#999999" d="M405.05 403.665q0 6.2-2.07 11.39-2.06 5.19-5.81 8.93-3.74 3.75-9.01 5.81-5.26 2.07-11.7 2.07h-21.49v-56.39h21.49q6.44 0 11.7 2.08 5.27 2.09 9.01 5.81 3.75 3.73 5.81 8.91 2.07 5.19 2.07 11.39m-10.76 0q0-4.64-1.23-8.32-1.23-3.69-3.55-6.24-2.32-2.56-5.62-3.92-3.29-1.37-7.43-1.37H365.5v39.7h10.96q4.14 0 7.43-1.36 3.3-1.37 5.62-3.92t3.55-6.24 1.23-8.33m39.62 17.86v-6.74q-4.17.19-7.02.72t-4.56 1.34q-1.72.82-2.46 1.92-.74 1.09-.74 2.38 0 2.53 1.5 3.62t3.92 1.09q2.96 0 5.13-1.07 2.16-1.07 4.23-3.26m-20.36-21.02-1.71-3.08q6.9-6.32 16.61-6.32 3.51 0 6.28 1.16 2.77 1.15 4.68 3.19 1.91 2.05 2.9 4.9 1 2.85 1 6.24v25.27h-4.37q-1.36 0-2.11-.41-.74-.41-1.17-1.66l-.85-2.88q-1.52 1.36-2.97 2.4-1.44 1.03-3 1.73t-3.34 1.07q-1.77.37-3.91.37-2.54 0-4.68-.68-2.15-.68-3.71-2.05-1.56-1.36-2.42-3.39t-.86-4.72q0-1.52.51-3.02t1.66-2.87q1.15-1.36 2.98-2.57 1.84-1.21 4.51-2.11 2.67-.89 6.22-1.46t8.11-.68v-2.34q0-4.02-1.72-5.95-1.71-1.93-4.95-1.93-2.34 0-3.88.55-1.54.54-2.71 1.22-1.17.69-2.13 1.23-.95.55-2.12.55-1.02 0-1.72-.53-.7-.52-1.13-1.23m65.4-4.33-2.18 3.48q-.39.62-.82.87-.43.26-1.09.26-.7 0-1.5-.39t-1.85-.88q-1.06-.49-2.4-.88-1.35-.39-3.18-.39-2.85 0-4.47 1.21t-1.62 3.16q0 1.29.84 2.16.84.88 2.23 1.54 1.38.67 3.14 1.19 1.75.53 3.56 1.16 1.82.62 3.57 1.42 1.76.8 3.14 2.03 1.39 1.23 2.22 2.94.84 1.72.84 4.13 0 2.89-1.03 5.33t-3.06 4.21q-2.03 1.78-5.01 2.77-2.99.99-6.89.99-2.06 0-4.03-.37t-3.79-1.03q-1.81-.66-3.35-1.56t-2.71-1.95l2.22-3.67q.43-.66 1.02-1.01.58-.35 1.48-.35t1.69.51q.8.5 1.86 1.09 1.05.58 2.47 1.09 1.43.51 3.61.51 1.72 0 2.95-.41 1.22-.41 2.02-1.08.8-.66 1.17-1.54.37-.87.37-1.81 0-1.4-.83-2.3-.84-.9-2.23-1.56-1.38-.66-3.16-1.19-1.77-.53-3.62-1.15-1.86-.62-3.63-1.46t-3.16-2.13q-1.38-1.29-2.22-3.16t-.84-4.52q0-2.46.97-4.68.98-2.22 2.87-3.88t4.72-2.65q2.83-1 6.53-1 4.14 0 7.53 1.37 3.39 1.36 5.65 3.58m26.95-4.32h9.68v40.01h-9.68zm11-11.66q0 1.24-.51 2.33-.5 1.1-1.34 1.92t-1.97 1.3q-1.13.49-2.42.49-1.25 0-2.36-.49-1.11-.48-1.93-1.3t-1.31-1.92q-.48-1.09-.48-2.33 0-1.29.48-2.42.49-1.13 1.31-1.95t1.93-1.31 2.36-.49q1.29 0 2.42.49t1.97 1.31 1.34 1.95q.51 1.13.51 2.42m35.1 15.98-2.18 3.48q-.39.62-.82.87-.43.26-1.09.26-.71 0-1.51-.39-.79-.39-1.85-.88-1.05-.49-2.4-.88-1.34-.39-3.17-.39-2.85 0-4.47 1.21t-1.62 3.16q0 1.29.84 2.16.84.88 2.22 1.54 1.39.67 3.14 1.19 1.76.53 3.57 1.16 1.81.62 3.57 1.42 1.75.8 3.14 2.03 1.38 1.23 2.22 2.94.84 1.72.84 4.13 0 2.89-1.03 5.33-1.04 2.44-3.06 4.21-2.03 1.78-5.02 2.77-2.98.99-6.88.99-2.07 0-4.04-.37t-3.78-1.03-3.35-1.56-2.71-1.95l2.22-3.67q.43-.66 1.01-1.01.59-.35 1.49-.35.89 0 1.69.51.8.5 1.85 1.09 1.06.58 2.48 1.09t3.61.51q1.71 0 2.94-.41t2.03-1.08q.8-.66 1.17-1.54.37-.87.37-1.81 0-1.4-.84-2.3t-2.22-1.56-3.16-1.19q-1.77-.53-3.63-1.15-1.85-.62-3.62-1.46-1.78-.84-3.16-2.13-1.39-1.29-2.23-3.16-.83-1.87-.83-4.52 0-2.46.97-4.68.98-2.22 2.87-3.88t4.72-2.65q2.82-1 6.53-1 4.13 0 7.53 1.37 3.39 1.36 5.65 3.58m21.02 36.31q-5.22 0-8.01-2.94t-2.79-8.13v-22.35h-4.1q-.78 0-1.32-.51-.55-.5-.55-1.52v-3.82l6.44-1.05 2.03-10.92q.19-.78.74-1.21.54-.43 1.4-.43h4.99v12.6h10.69v6.86h-10.69v21.68q0 1.88.92 2.93t2.51 1.05q.9 0 1.51-.21.6-.22 1.05-.45t.8-.45q.35-.21.7-.21.43 0 .7.21.28.22.59.64l2.88 4.69q-2.1 1.75-4.83 2.65-2.73.89-5.66.89m42.24-25.23h18.17q0-1.87-.52-3.53-.53-1.66-1.58-2.9-1.06-1.25-2.67-1.97-1.62-.72-3.77-.72-4.17 0-6.57 2.37-2.4 2.38-3.06 6.75m24.57 5.81h-24.77q.24 3.08 1.1 5.33.85 2.24 2.26 3.7 1.4 1.46 3.33 2.18 1.93.73 4.27.73t4.04-.55 2.96-1.21q1.27-.66 2.23-1.21.95-.54 1.85-.54 1.21 0 1.79.89l2.77 3.51q-1.6 1.88-3.59 3.14-1.98 1.27-4.15 2.03-2.16.76-4.41 1.07-2.24.31-4.34.31-4.18 0-7.77-1.38-3.58-1.38-6.24-4.09-2.65-2.72-4.17-6.71-1.52-4-1.52-9.26 0-4.1 1.33-7.71 1.32-3.6 3.8-6.28 2.48-2.67 6.04-4.23 3.57-1.56 8.06-1.56 3.78 0 6.98 1.21t5.5 3.53 3.6 5.69q1.31 3.38 1.31 7.71 0 2.18-.47 2.94-.46.76-1.79.76m9.79-21.21h9.67v40.01h-9.67zm11-11.66q0 1.24-.51 2.33-.51 1.1-1.35 1.92-.83.82-1.97 1.3-1.13.49-2.41.49-1.25 0-2.36-.49-1.11-.48-1.93-1.3t-1.31-1.92q-.49-1.09-.49-2.33 0-1.29.49-2.42t1.31-1.95 1.93-1.31 2.36-.49q1.28 0 2.41.49 1.14.49 1.97 1.31.84.82 1.35 1.95t.51 2.42m16.84 13.41.67 3.16q1.21-1.21 2.55-2.24 1.35-1.04 2.85-1.76t3.22-1.13q1.71-.41 3.74-.41 3.28 0 5.81 1.11 2.54 1.12 4.23 3.12 1.7 2.01 2.58 4.8.87 2.79.87 6.14v25.47h-9.63v-25.47q0-3.66-1.68-5.67-1.67-2.01-5.1-2.01-2.5 0-4.68 1.13-2.19 1.13-4.14 3.08v28.94h-9.63v-40.01h5.89q1.87 0 2.45 1.75m66.62 10.22h7.84q2.88 0 5.03-.72 2.14-.72 3.56-2.07 1.43-1.34 2.13-3.28.7-1.93.7-4.3 0-2.27-.7-4.1t-2.11-3.12q-1.4-1.29-3.54-1.97-2.15-.68-5.07-.68h-7.84zm-10.49-28.35h18.33q5.65 0 9.78 1.32 4.14 1.33 6.83 3.71t4 5.69q1.3 3.32 1.3 7.26 0 4.09-1.36 7.5-1.37 3.41-4.1 5.87t-6.84 3.82q-4.12 1.37-9.61 1.37h-7.84v19.85h-10.49zm46.87-1.56h9.64v57.95h-9.64zm40.41 47.61v-6.74q-4.18.19-7.02.72-2.85.53-4.57 1.34-1.71.82-2.45 1.92-.74 1.09-.74 2.38 0 2.53 1.5 3.62t3.92 1.09q2.96 0 5.13-1.07 2.16-1.07 4.23-3.26m-20.36-21.02-1.72-3.08q6.91-6.32 16.62-6.32 3.51 0 6.28 1.16 2.77 1.15 4.68 3.19 1.91 2.05 2.9 4.9 1 2.85 1 6.24v25.27h-4.37q-1.37 0-2.11-.41t-1.17-1.66l-.86-2.88q-1.52 1.36-2.96 2.4-1.44 1.03-3 1.73t-3.34 1.07q-1.77.37-3.92.37-2.53 0-4.68-.68-2.14-.68-3.7-2.05-1.56-1.36-2.42-3.39t-.86-4.72q0-1.52.51-3.02t1.66-2.87q1.15-1.36 2.98-2.57t4.5-2.11q2.68-.89 6.23-1.46 3.54-.57 8.11-.68v-2.34q0-4.02-1.72-5.95-1.71-1.93-4.95-1.93-2.34 0-3.88.55-1.54.54-2.71 1.22-1.17.69-2.13 1.23-.95.55-2.12.55-1.02 0-1.72-.53-.7-.52-1.13-1.23m52.14 31.98q-5.22 0-8.01-2.94t-2.79-8.13v-22.35h-4.1q-.78 0-1.32-.51-.55-.5-.55-1.52v-3.82l6.44-1.05 2.03-10.92q.19-.78.74-1.21.54-.43 1.4-.43h4.99v12.6h10.69v6.86h-10.69v21.68q0 1.88.92 2.93t2.51 1.05q.9 0 1.51-.21.6-.22 1.05-.45t.8-.45q.35-.21.7-.21.43 0 .7.21.28.22.59.64l2.88 4.69q-2.1 1.75-4.83 2.65-2.73.89-5.66.89m44.42-40.63v3.97q0 1.02-.35 1.99-.35.98-.93 1.6l-19 25.04h19.7v7.41H865.6v-4.02q0-.66.31-1.58.31-.91.94-1.73l19.19-25.31h-19.31v-7.37zm16.73-17.94v22.23q2.34-2.19 5.15-3.55 2.81-1.37 6.59-1.37 3.28 0 5.81 1.11 2.54 1.12 4.24 3.12 1.69 2.01 2.57 4.8t.88 6.14v25.47h-9.64v-25.47q0-3.66-1.67-5.67-1.68-2.01-5.11-2.01-2.5 0-4.68 1.13-2.19 1.13-4.14 3.08v28.94h-9.63v-57.95zm55.5 47.61v-6.74q-4.17.19-7.02.72t-4.56 1.34q-1.72.82-2.46 1.92-.74 1.09-.74 2.38 0 2.53 1.5 3.62t3.92 1.09q2.97 0 5.13-1.07t4.23-3.26m-20.36-21.02-1.71-3.08q6.9-6.32 16.61-6.32 3.51 0 6.28 1.16 2.77 1.15 4.68 3.19 1.91 2.05 2.91 4.9.99 2.85.99 6.24v25.27h-4.37q-1.36 0-2.1-.41t-1.17-1.66l-.86-2.88q-1.52 1.36-2.97 2.4-1.44 1.03-3 1.73t-3.33 1.07q-1.78.37-3.92.37-2.54 0-4.68-.68-2.15-.68-3.71-2.05-1.56-1.36-2.42-3.39-.85-2.03-.85-4.72 0-1.52.5-3.02.51-1.5 1.66-2.87 1.15-1.36 2.98-2.57 1.84-1.21 4.51-2.11 2.67-.89 6.22-1.46t8.11-.68v-2.34q0-4.02-1.71-5.95-1.72-1.93-4.96-1.93-2.34 0-3.88.55-1.54.54-2.71 1.22-1.17.69-2.12 1.23-.96.55-2.13.55-1.01 0-1.72-.53-.7-.52-1.13-1.23m38.93-26.59h9.63v57.95h-9.63zm32.6 58.57q-5.23 0-8.02-2.94-2.78-2.94-2.78-8.13v-22.35h-4.1q-.78 0-1.32-.51-.55-.5-.55-1.52v-3.82l6.43-1.05 2.03-10.92q.2-.78.74-1.21.55-.43 1.41-.43h4.99v12.6h10.69v6.86h-10.69v21.68q0 1.88.92 2.93.91 1.05 2.51 1.05.9 0 1.5-.21.61-.22 1.06-.45.44-.23.8-.45.35-.21.7-.21.43 0 .7.21.27.22.58.64l2.89 4.69q-2.11 1.75-4.84 2.65-2.73.89-5.65.89m23.28-25.23h18.18q0-1.87-.53-3.53t-1.58-2.9q-1.05-1.25-2.67-1.97t-3.76-.72q-4.18 0-6.58 2.37-2.39 2.38-3.06 6.75m24.57 5.81h-24.76q.23 3.08 1.09 5.33.86 2.24 2.26 3.7 1.41 1.46 3.34 2.18 1.93.73 4.27.73t4.03-.55q1.7-.55 2.97-1.21 1.26-.66 2.22-1.21.96-.54 1.85-.54 1.21 0 1.8.89l2.77 3.51q-1.6 1.88-3.59 3.14-1.99 1.27-4.16 2.03-2.16.76-4.4 1.07-2.25.31-4.35.31-4.17 0-7.76-1.38t-6.24-4.09q-2.65-2.72-4.18-6.71-1.52-4-1.52-9.26 0-4.1 1.33-7.71 1.33-3.6 3.8-6.28 2.48-2.67 6.05-4.23t8.05-1.56q3.78 0 6.98 1.21t5.5 3.53 3.61 5.69q1.3 3.38 1.3 7.71 0 2.18-.46 2.94-.47.76-1.8.76m17.98-18.8.59 4.53q1.87-3.59 4.44-5.64 2.58-2.05 6.09-2.05 2.77 0 4.44 1.21l-.62 7.22q-.2.7-.57.99-.37.3-.99.3-.59 0-1.74-.2-1.15-.19-2.24-.19-1.6 0-2.85.46-1.24.47-2.24 1.35-.99.88-1.75 2.12-.76 1.25-1.43 2.85v24.65h-9.63v-40.01h5.65q1.49 0 2.07.52.59.53.78 1.89m30.23 9.29v17.94q1.63 1.99 3.56 2.8 1.94.82 4.08.82 2.22 0 4-.8 1.77-.8 3.02-2.49 1.25-1.7 1.91-4.33t.66-6.3q0-6.59-2.18-9.54-2.18-2.94-6.28-2.94-2.77 0-4.83 1.27-2.07 1.27-3.94 3.57m0-29.64v22.85q2.41-2.53 5.36-4.04 2.94-1.5 6.73-1.5 3.47 0 6.26 1.37 2.78 1.36 4.75 3.92 1.97 2.55 3.03 6.18 1.05 3.62 1.05 8.15 0 4.87-1.21 8.85t-3.45 6.81q-2.24 2.82-5.4 4.39-3.16 1.55-7.02 1.55-1.87 0-3.4-.37-1.52-.37-2.8-1.03-1.29-.66-2.36-1.62-1.08-.95-2.05-2.12l-.43 2.69q-.23 1.01-.8 1.44-.56.43-1.54.43h-6.36v-57.95zm34.94 17.94h9.67v40.01h-9.67zm11-11.66q0 1.24-.51 2.33-.51 1.1-1.34 1.92-.84.82-1.97 1.3-1.13.49-2.42.49-1.25 0-2.36-.49-1.11-.48-1.93-1.3t-1.31-1.92q-.49-1.09-.49-2.33 0-1.29.49-2.42t1.31-1.95 1.93-1.31 2.36-.49q1.29 0 2.42.49t1.97 1.31q.83.82 1.34 1.95t.51 2.42m8.62-6.28h9.63v57.95h-9.63zm44.38 46.09v-17.94q-1.64-1.99-3.57-2.8-1.93-.82-4.15-.82-2.19 0-3.94.82-1.76.81-3 2.47-1.25 1.66-1.92 4.21-.66 2.56-.66 6.03 0 3.51.57 5.95.56 2.43 1.62 3.98 1.05 1.54 2.57 2.22t3.39.68q3.01 0 5.11-1.25 2.11-1.24 3.98-3.55m0-46.09h9.63v57.95h-5.89q-1.91 0-2.41-1.75l-.82-3.87q-2.42 2.77-5.56 4.49-3.14 1.71-7.31 1.71-3.28 0-6.01-1.36-2.73-1.37-4.7-3.96t-3.04-6.41q-1.07-3.83-1.07-8.74 0-4.45 1.21-8.27 1.2-3.82 3.47-6.63 2.26-2.81 5.42-4.39t7.1-1.58q3.35 0 5.73 1.06 2.38 1.05 4.25 2.85zm17.74 52.65q0-1.21.45-2.31.45-1.09 1.23-1.87t1.87-1.24q1.1-.47 2.34-.47 1.25 0 2.32.47 1.08.46 1.88 1.24t1.26 1.87q.47 1.1.47 2.31 0 1.24-.47 2.32-.46 1.07-1.26 1.85t-1.88 1.23q-1.07.45-2.32.45-1.24 0-2.34-.45-1.09-.45-1.87-1.23t-1.23-1.85q-.45-1.08-.45-2.32m-902.38 90.71h10.61q2.93 0 4.91-.7 1.99-.7 3.18-1.87t1.72-2.73.53-3.32q0-1.83-.59-3.29-.58-1.47-1.83-2.5t-3.22-1.58-4.74-.55h-10.57zm8.93-40.09h-8.93v16.3h8.35q5.38 0 8.13-1.95t2.75-6.2q0-4.41-2.5-6.28-2.49-1.87-7.8-1.87m-19.42-8.11h19.42q5.54 0 9.48 1.05t6.45 3q2.52 1.95 3.69 4.72t1.17 6.24q0 1.99-.58 3.8-.59 1.82-1.82 3.4t-3.12 2.86q-1.89 1.29-4.5 2.19 11.62 2.61 11.62 12.55 0 3.59-1.37 6.64-1.36 3.04-3.97 5.24-2.62 2.2-6.44 3.45t-8.73 1.25h-21.3zm50.16 16.38h9.67v40.01h-9.67zm10.99-11.67q0 1.25-.5 2.34-.51 1.1-1.35 1.92-.84.81-1.97 1.3t-2.42.49q-1.24 0-2.36-.49-1.11-.49-1.93-1.3-.82-.82-1.3-1.92-.49-1.09-.49-2.34 0-1.28.49-2.41.48-1.13 1.3-1.95t1.93-1.31q1.12-.49 2.36-.49 1.29 0 2.42.49t1.97 1.31 1.35 1.95q.5 1.13.5 2.41m21.84 52.3q-5.22 0-8.01-2.94-2.79-2.95-2.79-8.13v-22.35h-4.09q-.78 0-1.33-.51-.55-.5-.55-1.52v-3.82l6.44-1.05 2.03-10.92q.19-.78.74-1.21.54-.43 1.4-.43h4.99v12.6h10.69v6.86h-10.69v21.68q0 1.88.92 2.93t2.52 1.05q.89 0 1.5-.21.6-.22 1.05-.45t.8-.45q.35-.21.7-.21.43 0 .7.21.28.22.59.64l2.88 4.68q-2.1 1.76-4.83 2.66-2.73.89-5.66.89m29.02 0q-5.23 0-8.01-2.94-2.79-2.95-2.79-8.13v-22.35h-4.1q-.78 0-1.32-.51-.55-.5-.55-1.52v-3.82l6.43-1.05 2.03-10.92q.2-.78.74-1.21.55-.43 1.41-.43h4.99v12.6h10.69v6.86h-10.69v21.68q0 1.88.92 2.93.91 1.05 2.51 1.05.9 0 1.5-.21.61-.22 1.06-.45.44-.23.8-.45.35-.21.7-.21.43 0 .7.21.27.22.58.64l2.89 4.68q-2.11 1.76-4.84 2.66-2.73.89-5.65.89m23.28-25.23h18.18q0-1.87-.53-3.53t-1.58-2.9q-1.05-1.25-2.67-1.97-1.62-.73-3.76-.73-4.18 0-6.58 2.38-2.39 2.38-3.06 6.75m24.57 5.81h-24.76q.23 3.08 1.09 5.33.86 2.24 2.26 3.7 1.41 1.46 3.34 2.18 1.93.73 4.27.73t4.03-.55q1.7-.55 2.97-1.21 1.26-.66 2.22-1.21.96-.54 1.85-.54 1.21 0 1.8.89l2.77 3.51q-1.6 1.87-3.59 3.14t-4.16 2.03q-2.16.76-4.4 1.07-2.25.31-4.35.31-4.17 0-7.76-1.38t-6.24-4.09q-2.65-2.72-4.18-6.71-1.52-4-1.52-9.27 0-4.09 1.33-7.7t3.8-6.28q2.48-2.67 6.05-4.23t8.05-1.56q3.78 0 6.98 1.21t5.5 3.53 3.61 5.69q1.3 3.38 1.3 7.71 0 2.18-.46 2.94-.47.76-1.8.76m36.04-5.81h18.17q0-1.87-.52-3.53-.53-1.66-1.58-2.9-1.06-1.25-2.67-1.97-1.62-.73-3.77-.73-4.17 0-6.57 2.38t-3.06 6.75m24.57 5.81h-24.77q.24 3.08 1.1 5.33.85 2.24 2.26 3.7 1.4 1.46 3.33 2.18 1.93.73 4.27.73t4.04-.55 2.96-1.21q1.27-.66 2.23-1.21.95-.54 1.85-.54 1.21 0 1.79.89l2.77 3.51q-1.6 1.87-3.59 3.14t-4.15 2.03-4.41 1.07q-2.24.31-4.35.31-4.17 0-7.76-1.38-3.58-1.38-6.24-4.09-2.65-2.72-4.17-6.71-1.52-4-1.52-9.27 0-4.09 1.33-7.7 1.32-3.61 3.8-6.28 2.47-2.67 6.04-4.23t8.06-1.56q3.78 0 6.98 1.21t5.5 3.53 3.6 5.69q1.31 3.38 1.31 7.71 0 2.18-.47 2.94t-1.79.76m17.98-18.8.58 4.53q1.87-3.59 4.45-5.64 2.57-2.05 6.08-2.05 2.77 0 4.45 1.21l-.63 7.22q-.19.7-.56.99-.37.3-1 .3-.58 0-1.73-.2-1.15-.19-2.24-.19-1.6 0-2.85.46-1.25.47-2.24 1.35-1 .88-1.76 2.12-.76 1.25-1.42 2.85v24.65h-9.63v-40.01h5.65q1.48 0 2.07.52.58.53.78 1.89m47.19 1.91-2.19 3.48q-.39.62-.82.87-.42.26-1.09.26-.7 0-1.5-.39t-1.85-.88-2.4-.88-3.18-.39q-2.85 0-4.46 1.21-1.62 1.21-1.62 3.16 0 1.29.84 2.16.83.88 2.22 1.54 1.38.67 3.14 1.19 1.75.53 3.57 1.15 1.81.63 3.57 1.43 1.75.8 3.14 2.03 1.38 1.22 2.22 2.94t.84 4.13q0 2.89-1.04 5.33-1.03 2.44-3.06 4.21t-5.01 2.77q-2.98.99-6.88.99-2.07 0-4.04-.37t-3.78-1.03q-1.82-.66-3.36-1.56t-2.71-1.95l2.23-3.67q.42-.66 1.01-1.01.58-.35 1.48-.35t1.7.51q.8.5 1.85 1.09 1.05.58 2.48 1.09 1.42.51 3.6.51 1.72 0 2.95-.41t2.03-1.08q.8-.66 1.17-1.54.37-.87.37-1.81 0-1.4-.84-2.3t-2.22-1.56q-1.39-.66-3.16-1.19-1.78-.53-3.63-1.15t-3.63-1.46q-1.77-.84-3.16-2.13-1.38-1.29-2.22-3.16t-.84-4.52q0-2.46.98-4.68.97-2.22 2.86-3.88 1.9-1.66 4.72-2.65 2.83-1 6.54-1 4.13 0 7.52 1.37 3.4 1.36 5.66 3.58m15.29 11.08h18.17q0-1.87-.53-3.53-.52-1.66-1.58-2.9-1.05-1.25-2.67-1.97-1.62-.73-3.76-.73-4.17 0-6.57 2.38t-3.06 6.75m24.57 5.81h-24.77q.23 3.08 1.09 5.33.86 2.24 2.26 3.7 1.41 1.46 3.34 2.18 1.93.73 4.27.73t4.04-.55q1.69-.55 2.96-1.21t2.22-1.21q.96-.54 1.86-.54 1.2 0 1.79.89l2.77 3.51q-1.6 1.87-3.59 3.14t-4.15 2.03q-2.17.76-4.41 1.07t-4.35.31q-4.17 0-7.76-1.38t-6.24-4.09q-2.65-2.72-4.17-6.71-1.52-4-1.52-9.27 0-4.09 1.32-7.7 1.33-3.61 3.8-6.28 2.48-2.67 6.05-4.23t8.05-1.56q3.79 0 6.98 1.21 3.2 1.21 5.5 3.53t3.61 5.69q1.31 3.38 1.31 7.71 0 2.18-.47 2.94t-1.79.76m22.81 19.42q-5.23 0-8.01-2.94-2.79-2.95-2.79-8.13v-22.35h-4.1q-.78 0-1.32-.51-.55-.5-.55-1.52v-3.82l6.44-1.05 2.02-10.92q.2-.78.74-1.21.55-.43 1.41-.43h4.99v12.6h10.69v6.86h-10.69v21.68q0 1.88.92 2.93.91 1.05 2.51 1.05.9 0 1.5-.21.61-.22 1.06-.45t.8-.45q.35-.21.7-.21.43 0 .7.21.27.22.59.64l2.88 4.68q-2.1 1.76-4.83 2.66-2.73.89-5.66.89m44.42-40.63v3.97q0 1.02-.35 1.99-.35.98-.94 1.6l-18.99 25.04h19.7v7.41H681.6v-4.02q0-.66.31-1.58.31-.91.94-1.73l19.18-25.31h-19.3v-7.37zm14.7 15.4h18.18q0-1.87-.53-3.53-.52-1.66-1.58-2.9-1.05-1.25-2.67-1.97-1.62-.73-3.76-.73-4.18 0-6.57 2.38-2.4 2.38-3.07 6.75m24.57 5.81h-24.76q.23 3.08 1.09 5.33.86 2.24 2.26 3.7 1.41 1.46 3.34 2.18 1.93.73 4.27.73t4.03-.55q1.7-.55 2.97-1.21t2.22-1.21q.96-.54 1.85-.54 1.21 0 1.8.89l2.77 3.51q-1.6 1.87-3.59 3.14t-4.15 2.03q-2.17.76-4.41 1.07t-4.35.31q-4.17 0-7.76-1.38t-6.24-4.09q-2.65-2.72-4.17-6.71-1.52-4-1.52-9.27 0-4.09 1.32-7.7 1.33-3.61 3.8-6.28 2.48-2.67 6.05-4.23t8.05-1.56q3.79 0 6.98 1.21 3.2 1.21 5.5 3.53t3.61 5.69q1.31 3.38 1.31 7.71 0 2.18-.47 2.94t-1.8.76m17.83-19.46.66 3.16q1.21-1.21 2.55-2.24 1.35-1.04 2.85-1.76t3.22-1.13 3.74-.41q3.28 0 5.81 1.11 2.54 1.11 4.24 3.12 1.69 2.01 2.57 4.8t.88 6.14v25.47h-9.64v-25.47q0-3.66-1.67-5.67-1.68-2.01-5.11-2.01-2.5 0-4.68 1.13-2.19 1.13-4.14 3.08v28.94h-9.63v-40.01h5.89q1.87 0 2.46 1.75m72.3-2.38q4.45 0 8.1 1.44 3.64 1.45 6.24 4.1 2.59 2.65 3.99 6.47 1.41 3.83 1.41 8.54 0 4.76-1.41 8.58-1.4 3.83-3.99 6.52-2.6 2.69-6.24 4.13-3.65 1.44-8.1 1.44-4.48 0-8.15-1.44-3.66-1.44-6.26-4.13-2.59-2.69-4.01-6.52-1.43-3.82-1.43-8.58 0-4.71 1.43-8.54 1.42-3.82 4.01-6.47 2.6-2.65 6.26-4.1 3.67-1.44 8.15-1.44m0 33.81q5 0 7.39-3.35 2.4-3.35 2.4-9.83 0-6.47-2.4-9.86-2.39-3.4-7.39-3.4-5.07 0-7.5 3.42-2.44 3.41-2.44 9.84 0 6.44 2.44 9.81 2.43 3.37 7.5 3.37m52.22-5.03v-17.94q-1.63-1.99-3.56-2.8-1.93-.82-4.16-.82-2.18 0-3.94.82-1.75.81-3 2.47t-1.91 4.21q-.66 2.56-.66 6.03 0 3.51.56 5.95.57 2.43 1.62 3.98 1.05 1.54 2.57 2.22 1.53.68 3.4.68 3 0 5.11-1.25 2.1-1.25 3.97-3.55m0-46.09h9.64v57.95h-5.89q-1.91 0-2.42-1.76l-.82-3.86q-2.42 2.77-5.56 4.49-3.14 1.71-7.31 1.71-3.27 0-6-1.36-2.73-1.37-4.7-3.96t-3.05-6.41q-1.07-3.83-1.07-8.74 0-4.45 1.21-8.27t3.47-6.63 5.42-4.39 7.1-1.58q3.35 0 5.73 1.06 2.38 1.05 4.25 2.84zm26.76 33.34h18.17q0-1.87-.52-3.53-.53-1.66-1.58-2.9-1.06-1.25-2.68-1.97-1.61-.73-3.76-.73-4.17 0-6.57 2.38t-3.06 6.75m24.57 5.81h-24.77q.24 3.08 1.1 5.33.85 2.24 2.26 3.7 1.4 1.46 3.33 2.18 1.93.73 4.27.73t4.04-.55 2.96-1.21q1.27-.66 2.23-1.21.95-.54 1.85-.54 1.21 0 1.79.89l2.77 3.51q-1.6 1.87-3.59 3.14t-4.15 2.03-4.41 1.07q-2.24.31-4.35.31-4.17 0-7.76-1.38-3.58-1.38-6.24-4.09-2.65-2.72-4.17-6.71-1.52-4-1.52-9.27 0-4.09 1.33-7.7 1.32-3.61 3.8-6.28 2.47-2.67 6.04-4.23t8.06-1.56q3.78 0 6.98 1.21t5.5 3.53 3.6 5.69q1.31 3.38 1.31 7.71 0 2.18-.47 2.94t-1.79.76m17.98-18.8.58 4.53q1.87-3.59 4.45-5.64 2.57-2.05 6.08-2.05 2.77 0 4.45 1.21l-.63 7.22q-.19.7-.56.99-.37.3-1 .3-.58 0-1.73-.2-1.15-.19-2.24-.19-1.6 0-2.85.46-1.25.47-2.24 1.35-1 .88-1.76 2.12-.76 1.25-1.42 2.85v24.65h-9.63v-40.01h5.65q1.48 0 2.07.52.58.53.78 1.89m39.66-20.35h9.63v57.95h-9.63zm36.97 17.31q4.45 0 8.1 1.44 3.64 1.45 6.24 4.1 2.59 2.65 3.99 6.47 1.41 3.83 1.41 8.54 0 4.76-1.41 8.58-1.4 3.83-3.99 6.52-2.6 2.69-6.24 4.13-3.65 1.44-8.1 1.44-4.48 0-8.15-1.44-3.66-1.44-6.26-4.13-2.59-2.69-4.02-6.52-1.42-3.82-1.42-8.58 0-4.71 1.42-8.54 1.43-3.82 4.02-6.47 2.6-2.65 6.26-4.1 3.67-1.44 8.15-1.44m0 33.81q4.99 0 7.39-3.35t2.4-9.83q0-6.47-2.4-9.86-2.4-3.4-7.39-3.4-5.07 0-7.5 3.42-2.44 3.41-2.44 9.84 0 6.44 2.44 9.81 2.43 3.37 7.5 3.37m-2.49-43.56q0 1.09-.43 2.05-.43.95-1.19 1.66-.76.7-1.76 1.11-.99.41-2.12.41-1.06 0-2.01-.41-.96-.41-1.68-1.11-.72-.71-1.15-1.66-.43-.96-.43-2.05 0-1.13.43-2.12.43-1 1.15-1.74t1.68-1.17q.95-.43 2.01-.43 1.13 0 2.12.43 1 .43 1.76 1.17t1.19 1.74q.43.99.43 2.12m15.75 0q0 1.09-.43 2.05-.43.95-1.15 1.66-.72.7-1.71 1.11-1 .41-2.13.41-1.09 0-2.07-.41-.97-.41-1.69-1.11-.72-.71-1.15-1.66-.43-.96-.43-2.05 0-1.13.43-2.12.43-1 1.15-1.74t1.69-1.17q.98-.43 2.07-.43 1.13 0 2.13.43.99.43 1.71 1.17t1.15 1.74q.43.99.43 2.12m40.45 14.7-2.19 3.48q-.39.62-.82.87-.43.26-1.09.26-.7 0-1.5-.39t-1.85-.88q-1.06-.49-2.4-.88-1.35-.39-3.18-.39-2.85 0-4.47 1.21-1.61 1.21-1.61 3.16 0 1.29.83 2.16.84.88 2.23 1.54 1.38.67 3.14 1.19 1.75.53 3.56 1.15 1.82.63 3.57 1.43 1.76.8 3.14 2.03 1.39 1.22 2.23 2.94.83 1.72.83 4.13 0 2.89-1.03 5.33t-3.06 4.21-5.01 2.77q-2.99.99-6.89.99-2.06 0-4.03-.37t-3.78-1.03q-1.82-.66-3.36-1.56t-2.71-1.95l2.22-3.67q.43-.66 1.02-1.01.58-.35 1.48-.35t1.7.51q.8.5 1.85 1.09 1.05.58 2.48 1.09 1.42.51 3.6.51 1.72 0 2.95-.41t2.03-1.08q.79-.66 1.17-1.54.37-.87.37-1.81 0-1.4-.84-2.3t-2.23-1.56q-1.38-.66-3.15-1.19-1.78-.53-3.63-1.15t-3.63-1.46q-1.77-.84-3.16-2.13-1.38-1.29-2.22-3.16t-.84-4.52q0-2.46.98-4.68.97-2.22 2.86-3.88t4.72-2.65q2.83-1 6.53-1 4.14 0 7.53 1.37 3.39 1.36 5.66 3.58m38.88.63-2.54 3.51q-.43.54-.83.86-.41.31-1.19.31-.75 0-1.45-.45t-1.67-1.01q-.98-.57-2.32-1.02-1.35-.45-3.34-.45-2.53 0-4.45.92-1.91.92-3.17 2.63-1.27 1.72-1.9 4.16-.62 2.43-.62 5.51 0 3.2.68 5.7.69 2.49 1.97 4.19 1.29 1.7 3.12 2.58 1.84.87 4.14.87t3.72-.56q1.42-.57 2.4-1.25.97-.68 1.7-1.25.72-.56 1.61-.56 1.17 0 1.76.89l2.77 3.51q-1.6 1.87-3.47 3.14t-3.88 2.03-4.14 1.07q-2.12.31-4.23.31-3.7 0-6.98-1.38t-5.73-4.04q-2.46-2.65-3.88-6.49-1.43-3.84-1.43-8.76 0-4.4 1.27-8.17 1.27-3.76 3.73-6.51 2.45-2.75 6.08-4.31t8.35-1.56q4.48 0 7.85 1.44 3.38 1.45 6.07 4.14m16.03-22.89v22.23q2.34-2.19 5.15-3.55 2.8-1.37 6.59-1.37 3.27 0 5.81 1.11 2.53 1.11 4.23 3.12t2.57 4.8q.88 2.79.88 6.14v25.47h-9.63v-25.47q0-3.66-1.68-5.67t-5.11-2.01q-2.49 0-4.68 1.13-2.18 1.13-4.13 3.08v28.94h-9.64v-57.95zm41.96 33.34h18.18q0-1.87-.53-3.53t-1.58-2.9q-1.05-1.25-2.67-1.97-1.62-.73-3.77-.73-4.17 0-6.57 2.38t-3.06 6.75m24.57 5.81h-24.76q.23 3.08 1.09 5.33.86 2.24 2.26 3.7t3.34 2.18q1.93.73 4.27.73t4.03-.55q1.7-.55 2.97-1.21 1.26-.66 2.22-1.21.95-.54 1.85-.54 1.21 0 1.8.89l2.76 3.51q-1.59 1.87-3.58 3.14t-4.16 2.03q-2.16.76-4.4 1.07-2.25.31-4.35.31-4.18 0-7.76-1.38-3.59-1.38-6.24-4.09-2.66-2.72-4.18-6.71-1.52-4-1.52-9.27 0-4.09 1.33-7.7 1.32-3.61 3.8-6.28t6.05-4.23q3.56-1.56 8.05-1.56 3.78 0 6.98 1.21t5.5 3.53 3.61 5.69q1.3 3.38 1.3 7.71 0 2.18-.46 2.94-.47.76-1.8.76m17.82-19.46.67 3.16q1.21-1.21 2.55-2.24 1.35-1.04 2.85-1.76t3.22-1.13q1.71-.41 3.74-.41 3.28 0 5.81 1.11 2.54 1.11 4.23 3.12 1.7 2.01 2.58 4.8.87 2.79.87 6.14v25.47h-9.63v-25.47q0-3.66-1.68-5.67-1.67-2.01-5.1-2.01-2.5 0-4.68 1.13-2.19 1.13-4.14 3.08v28.94h-9.63v-40.01h5.89q1.87 0 2.45 1.75m34.25 32.96q0-1.21.45-2.31.44-1.09 1.22-1.87t1.88-1.24q1.09-.47 2.34-.47 1.24 0 2.32.47 1.07.46 1.87 1.24t1.27 1.87q.46 1.1.46 2.31 0 1.24-.46 2.32-.47 1.07-1.27 1.85t-1.87 1.23q-1.08.45-2.32.45-1.25 0-2.34-.45-1.1-.45-1.88-1.23t-1.22-1.85q-.45-1.08-.45-2.32"/></svg>